G04*
G04 #@! TF.GenerationSoftware,Altium Limited,Altium Designer,18.0.12 (696)*
G04*
G04 Layer_Color=8388736*
%FSLAX44Y44*%
%MOMM*%
G71*
G01*
G75*
%ADD14O,2.5032X2.7032*%
%ADD15C,3.7032*%
%ADD16C,2.7032*%
%ADD17C,4.2032*%
%ADD18O,3.0032X3.2032*%
%ADD19O,2.7032X2.3032*%
%ADD20C,0.2032*%
%ADD21O,5.8032X2.6032*%
%ADD22O,2.6032X5.8032*%
%ADD23O,5.4032X2.6032*%
%ADD24O,2.3032X2.5032*%
%ADD25R,2.3032X2.5032*%
%ADD26C,2.2032*%
D14*
X655000Y640000D02*
D03*
X680000D02*
D03*
D15*
X706000Y589000D02*
D03*
X604000D02*
D03*
D16*
X540000Y780000D02*
D03*
Y810000D02*
D03*
X890000Y800000D02*
D03*
X920000D02*
D03*
X760000Y920000D02*
D03*
Y890000D02*
D03*
X825000Y781000D02*
D03*
X855000D02*
D03*
X980000Y605000D02*
D03*
Y635000D02*
D03*
X805000Y700000D02*
D03*
X835000D02*
D03*
X950000Y630000D02*
D03*
Y600000D02*
D03*
X745000Y760000D02*
D03*
X775000D02*
D03*
X560000Y610000D02*
D03*
Y640000D02*
D03*
X790000Y665000D02*
D03*
Y635000D02*
D03*
X893000Y731000D02*
D03*
X863000Y753000D02*
D03*
Y709000D02*
D03*
X740000Y679000D02*
D03*
Y723000D02*
D03*
X770000Y701000D02*
D03*
X930000Y575000D02*
D03*
Y525000D02*
D03*
X964000Y787000D02*
D03*
Y837000D02*
D03*
X740000Y841000D02*
D03*
Y791000D02*
D03*
X930000Y745000D02*
D03*
Y775000D02*
D03*
X600000Y695000D02*
D03*
Y665000D02*
D03*
X630000Y695000D02*
D03*
Y665000D02*
D03*
X730000Y920000D02*
D03*
Y890000D02*
D03*
X700000Y805000D02*
D03*
Y835000D02*
D03*
X540000Y840000D02*
D03*
Y870000D02*
D03*
X905000Y676000D02*
D03*
X875000D02*
D03*
X930000Y695000D02*
D03*
Y725000D02*
D03*
X860000Y830000D02*
D03*
X890000D02*
D03*
X835000Y749000D02*
D03*
X805000D02*
D03*
X520000Y610000D02*
D03*
Y640000D02*
D03*
X820000Y820000D02*
D03*
X775000D02*
D03*
X797500Y790000D02*
D03*
D17*
X844000Y980000D02*
D03*
X804000Y866000D02*
D03*
X799000Y941400D02*
D03*
X597000Y940400D02*
D03*
X602000Y865000D02*
D03*
X642000Y979000D02*
D03*
D18*
X869000Y910000D02*
D03*
X896000Y900000D02*
D03*
X694000Y899000D02*
D03*
X667000Y909000D02*
D03*
D19*
X540000Y697200D02*
D03*
Y722800D02*
D03*
X952800Y892800D02*
D03*
Y867200D02*
D03*
X770000Y560000D02*
D03*
Y534400D02*
D03*
X693000Y709800D02*
D03*
Y684200D02*
D03*
D20*
X539000Y961000D02*
D03*
X970000Y550000D02*
D03*
X950000Y960000D02*
D03*
X540000Y550000D02*
D03*
D21*
X858500Y585000D02*
D03*
D22*
X905500Y615000D02*
D03*
D23*
X858500Y647000D02*
D03*
D24*
X572900Y732900D02*
D03*
X598300D02*
D03*
X623700D02*
D03*
X649100D02*
D03*
X572900Y809100D02*
D03*
X598300D02*
D03*
X623700D02*
D03*
D25*
X649100D02*
D03*
D26*
X970000Y738800D02*
D03*
Y690000D02*
D03*
M02*
