G04*
G04 #@! TF.GenerationSoftware,Altium Limited,Altium Designer,18.0.12 (696)*
G04*
G04 Layer_Physical_Order=2*
G04 Layer_Color=16711680*
%FSLAX44Y44*%
%MOMM*%
G71*
G01*
G75*
%ADD27C,1.0000*%
%ADD28O,2.3000X2.5000*%
%ADD29C,3.5000*%
%ADD30C,2.5000*%
%ADD31C,4.0000*%
%ADD32O,2.8000X3.0000*%
%ADD33O,2.5000X2.1000*%
%ADD34O,5.6000X2.4000*%
%ADD35O,2.4000X5.6000*%
%ADD36O,5.2000X2.4000*%
%ADD37O,2.1000X2.3000*%
%ADD38R,2.1000X2.3000*%
%ADD39C,2.0000*%
G36*
X997074Y556615D02*
X995804Y556465D01*
X995376Y558245D01*
X993774Y562113D01*
X991586Y565683D01*
X988867Y568867D01*
X985683Y571586D01*
X982113Y573774D01*
X978245Y575376D01*
X974174Y576354D01*
X970000Y576682D01*
X965826Y576354D01*
X961755Y575376D01*
X957887Y573774D01*
X954317Y571586D01*
X951133Y568867D01*
X948414Y565683D01*
X946226Y562113D01*
X944624Y558245D01*
X943646Y554174D01*
X943318Y550000D01*
X943646Y545826D01*
X944624Y541755D01*
X946226Y537887D01*
X948414Y534317D01*
X951133Y531133D01*
X954317Y528414D01*
X957887Y526226D01*
X961755Y524624D01*
X965826Y523646D01*
X970000Y523318D01*
X974174Y523646D01*
X978245Y524624D01*
X982113Y526226D01*
X985683Y528414D01*
X988867Y531133D01*
X991586Y534317D01*
X993774Y537887D01*
X995376Y541755D01*
X995804Y543535D01*
X997074Y543385D01*
Y502926D01*
X502926D01*
Y1000000D01*
X631924D01*
X632242Y998730D01*
X629718Y997381D01*
X626368Y994632D01*
X623619Y991282D01*
X621576Y987460D01*
X620527Y984000D01*
X642000D01*
X663473D01*
X662424Y987460D01*
X660381Y991282D01*
X657632Y994632D01*
X654282Y997381D01*
X651758Y998730D01*
X652076Y1000000D01*
X832134D01*
X832443Y998768D01*
X831718Y998381D01*
X828368Y995632D01*
X825619Y992282D01*
X823576Y988460D01*
X822527Y985000D01*
X844000D01*
X865473D01*
X864424Y988460D01*
X862381Y992282D01*
X859632Y995632D01*
X856282Y998381D01*
X855557Y998768D01*
X855866Y1000000D01*
X997074D01*
Y556615D01*
D02*
G37*
%LPC*%
G36*
X865473Y975000D02*
X849000D01*
Y958527D01*
X852460Y959576D01*
X856282Y961619D01*
X859632Y964368D01*
X862381Y967718D01*
X864424Y971540D01*
X865473Y975000D01*
D02*
G37*
G36*
X839000D02*
X822527D01*
X823576Y971540D01*
X825619Y967718D01*
X828368Y964368D01*
X831718Y961619D01*
X835540Y959576D01*
X839000Y958527D01*
Y975000D01*
D02*
G37*
G36*
X663473Y974000D02*
X647000D01*
Y957527D01*
X650460Y958576D01*
X654282Y960619D01*
X657632Y963368D01*
X660381Y966718D01*
X662424Y970540D01*
X663473Y974000D01*
D02*
G37*
G36*
X637000D02*
X620527D01*
X621576Y970540D01*
X623619Y966718D01*
X626368Y963368D01*
X629718Y960619D01*
X633540Y958576D01*
X637000Y957527D01*
Y974000D01*
D02*
G37*
G36*
X539000Y987682D02*
X534826Y987354D01*
X530755Y986376D01*
X526886Y984774D01*
X523317Y982586D01*
X520133Y979867D01*
X517414Y976683D01*
X515226Y973113D01*
X513624Y969245D01*
X512646Y965174D01*
X512318Y961000D01*
X512646Y956826D01*
X513624Y952755D01*
X515226Y948886D01*
X517414Y945317D01*
X520133Y942133D01*
X523317Y939414D01*
X526886Y937226D01*
X530755Y935624D01*
X534826Y934646D01*
X539000Y934318D01*
X543174Y934646D01*
X547245Y935624D01*
X551114Y937226D01*
X554683Y939414D01*
X557867Y942133D01*
X560586Y945317D01*
X562774Y948886D01*
X564376Y952755D01*
X565354Y956826D01*
X565682Y961000D01*
X565354Y965174D01*
X564376Y969245D01*
X562774Y973113D01*
X560586Y976683D01*
X557867Y979867D01*
X554683Y982586D01*
X551114Y984774D01*
X547245Y986376D01*
X543174Y987354D01*
X539000Y987682D01*
D02*
G37*
G36*
X950000Y986682D02*
X945826Y986354D01*
X941755Y985376D01*
X937887Y983774D01*
X934317Y981586D01*
X931133Y978867D01*
X928414Y975683D01*
X926226Y972113D01*
X924624Y968245D01*
X923646Y964174D01*
X923318Y960000D01*
X923646Y955826D01*
X924624Y951755D01*
X926226Y947887D01*
X928414Y944317D01*
X931133Y941133D01*
X934317Y938414D01*
X937887Y936226D01*
X941755Y934624D01*
X945826Y933646D01*
X950000Y933318D01*
X954174Y933646D01*
X958245Y934624D01*
X962113Y936226D01*
X965683Y938414D01*
X968867Y941133D01*
X971586Y944317D01*
X973774Y947887D01*
X975376Y951755D01*
X976354Y955826D01*
X976682Y960000D01*
X976354Y964174D01*
X975376Y968245D01*
X973774Y972113D01*
X971586Y975683D01*
X968867Y978867D01*
X965683Y981586D01*
X962113Y983774D01*
X958245Y985376D01*
X954174Y986354D01*
X950000Y986682D01*
D02*
G37*
G36*
X765000Y933624D02*
Y925000D01*
X773624D01*
X772666Y927312D01*
X770341Y930341D01*
X767313Y932666D01*
X765000Y933624D01*
D02*
G37*
G36*
X725000D02*
X722687Y932666D01*
X719659Y930341D01*
X717334Y927312D01*
X716376Y925000D01*
X725000D01*
Y933624D01*
D02*
G37*
G36*
X799000Y963104D02*
X794766Y962688D01*
X790694Y961452D01*
X786942Y959447D01*
X783653Y956747D01*
X780953Y953458D01*
X778948Y949706D01*
X777712Y945634D01*
X777296Y941400D01*
X777712Y937166D01*
X778948Y933094D01*
X780953Y929342D01*
X783653Y926053D01*
X786942Y923353D01*
X790694Y921348D01*
X794766Y920113D01*
X799000Y919696D01*
X803234Y920113D01*
X807306Y921348D01*
X811058Y923353D01*
X814347Y926053D01*
X817047Y929342D01*
X819052Y933094D01*
X820287Y937166D01*
X820704Y941400D01*
X820287Y945634D01*
X819052Y949706D01*
X817047Y953458D01*
X814347Y956747D01*
X811058Y959447D01*
X807306Y961452D01*
X803234Y962688D01*
X799000Y963104D01*
D02*
G37*
G36*
X597000Y962104D02*
X592766Y961687D01*
X588694Y960452D01*
X584942Y958447D01*
X581653Y955747D01*
X578953Y952458D01*
X576948Y948706D01*
X575713Y944634D01*
X575295Y940400D01*
X575713Y936166D01*
X576948Y932094D01*
X578953Y928342D01*
X581653Y925053D01*
X584942Y922353D01*
X588694Y920348D01*
X592766Y919112D01*
X597000Y918696D01*
X601234Y919112D01*
X605306Y920348D01*
X609058Y922353D01*
X612347Y925053D01*
X615047Y928342D01*
X617052Y932094D01*
X618288Y936166D01*
X618704Y940400D01*
X618288Y944634D01*
X617052Y948706D01*
X615047Y952458D01*
X612347Y955747D01*
X609058Y958447D01*
X605306Y960452D01*
X601234Y961687D01*
X597000Y962104D01*
D02*
G37*
G36*
X957800Y905013D02*
Y897800D01*
X966259D01*
X965719Y899104D01*
X963715Y901715D01*
X961104Y903719D01*
X958063Y904978D01*
X957800Y905013D01*
D02*
G37*
G36*
X947800D02*
X947537Y904978D01*
X944496Y903719D01*
X941885Y901715D01*
X939881Y899104D01*
X939341Y897800D01*
X947800D01*
Y905013D01*
D02*
G37*
G36*
X869000Y926675D02*
X865942Y926374D01*
X863001Y925482D01*
X860291Y924034D01*
X857916Y922084D01*
X855966Y919709D01*
X854518Y916999D01*
X853626Y914058D01*
X853325Y911000D01*
Y909000D01*
X853626Y905942D01*
X854518Y903001D01*
X855966Y900291D01*
X857916Y897916D01*
X860291Y895966D01*
X863001Y894518D01*
X865942Y893626D01*
X869000Y893325D01*
X872058Y893626D01*
X874999Y894518D01*
X877709Y895966D01*
X879225Y897210D01*
X880555Y896659D01*
X880626Y895942D01*
X881518Y893001D01*
X882966Y890291D01*
X884916Y887916D01*
X887291Y885966D01*
X890001Y884518D01*
X892942Y883626D01*
X896000Y883325D01*
X899058Y883626D01*
X901999Y884518D01*
X904709Y885966D01*
X907084Y887916D01*
X909034Y890291D01*
X910482Y893001D01*
X911374Y895942D01*
X911675Y899000D01*
Y901000D01*
X911374Y904058D01*
X910482Y906999D01*
X909034Y909709D01*
X907084Y912084D01*
X904709Y914034D01*
X901999Y915482D01*
X899058Y916374D01*
X896000Y916675D01*
X892942Y916374D01*
X890001Y915482D01*
X887291Y914034D01*
X885775Y912790D01*
X884445Y913341D01*
X884374Y914058D01*
X883482Y916999D01*
X882034Y919709D01*
X880084Y922084D01*
X877709Y924034D01*
X874999Y925482D01*
X872058Y926374D01*
X869000Y926675D01*
D02*
G37*
G36*
X667000Y925676D02*
X663942Y925374D01*
X661001Y924482D01*
X658291Y923034D01*
X655916Y921084D01*
X653966Y918709D01*
X652518Y915999D01*
X651626Y913058D01*
X651324Y910000D01*
Y908000D01*
X651626Y904942D01*
X652518Y902001D01*
X653966Y899291D01*
X655916Y896916D01*
X658291Y894966D01*
X661001Y893518D01*
X663942Y892626D01*
X667000Y892325D01*
X670058Y892626D01*
X672999Y893518D01*
X675709Y894966D01*
X677225Y896210D01*
X678555Y895659D01*
X678626Y894942D01*
X679518Y892001D01*
X680966Y889291D01*
X682916Y886916D01*
X685291Y884966D01*
X688001Y883518D01*
X690942Y882626D01*
X694000Y882325D01*
X697058Y882626D01*
X699999Y883518D01*
X702709Y884966D01*
X705084Y886916D01*
X707034Y889291D01*
X708482Y892001D01*
X709374Y894942D01*
X709676Y898000D01*
Y900000D01*
X709374Y903058D01*
X708482Y905999D01*
X707034Y908709D01*
X705084Y911084D01*
X702709Y913034D01*
X699999Y914482D01*
X697058Y915374D01*
X694000Y915676D01*
X690942Y915374D01*
X688001Y914482D01*
X685291Y913034D01*
X683775Y911790D01*
X682445Y912341D01*
X682374Y913058D01*
X681482Y915999D01*
X680034Y918709D01*
X678084Y921084D01*
X675709Y923034D01*
X672999Y924482D01*
X670058Y925374D01*
X667000Y925676D01*
D02*
G37*
G36*
X735000Y933624D02*
Y920000D01*
X730000D01*
Y915000D01*
X716376D01*
X717334Y912687D01*
X719659Y909659D01*
X722687Y907334D01*
X726215Y905873D01*
X729231Y905476D01*
X729515Y905439D01*
Y904158D01*
X729231Y904120D01*
X726319Y903737D01*
X722889Y902316D01*
X719944Y900056D01*
X717684Y897111D01*
X716263Y893681D01*
X715778Y890000D01*
X716263Y886319D01*
X717684Y882889D01*
X719944Y879944D01*
X722889Y877684D01*
X726319Y876263D01*
X730000Y875778D01*
X733681Y876263D01*
X737111Y877684D01*
X740056Y879944D01*
X742316Y882889D01*
X743737Y886319D01*
X744222Y890000D01*
X743737Y893681D01*
X742316Y897111D01*
X740056Y900056D01*
X737111Y902316D01*
X733681Y903737D01*
X730769Y904120D01*
X730485Y904158D01*
Y905439D01*
X730769Y905476D01*
X733785Y905873D01*
X737312Y907334D01*
X740341Y909659D01*
X742666Y912687D01*
X744127Y916215D01*
X744360Y917983D01*
X745640D01*
X745873Y916215D01*
X747334Y912687D01*
X749659Y909659D01*
X752687Y907334D01*
X756215Y905873D01*
X759231Y905476D01*
X759515Y905439D01*
X759515Y904158D01*
X759231Y904120D01*
X756319Y903737D01*
X752889Y902316D01*
X749944Y900056D01*
X747684Y897111D01*
X746263Y893681D01*
X745778Y890000D01*
X746263Y886319D01*
X747684Y882889D01*
X749944Y879944D01*
X752889Y877684D01*
X756319Y876263D01*
X760000Y875778D01*
X763681Y876263D01*
X767111Y877684D01*
X770056Y879944D01*
X772316Y882889D01*
X773737Y886319D01*
X774222Y890000D01*
X773737Y893681D01*
X772316Y897111D01*
X770056Y900056D01*
X767111Y902316D01*
X763681Y903737D01*
X760769Y904120D01*
X760485Y904158D01*
X760485Y905439D01*
X760769Y905476D01*
X763785Y905873D01*
X767313Y907334D01*
X770341Y909659D01*
X772666Y912687D01*
X773624Y915000D01*
X760000D01*
Y920000D01*
X755000D01*
Y933624D01*
X752687Y932666D01*
X749659Y930341D01*
X747334Y927312D01*
X745873Y923785D01*
X745640Y922017D01*
X744360D01*
X744127Y923785D01*
X742666Y927312D01*
X740341Y930341D01*
X737312Y932666D01*
X735000Y933624D01*
D02*
G37*
G36*
X545000Y883624D02*
Y875000D01*
X553624D01*
X552666Y877313D01*
X550341Y880341D01*
X547313Y882666D01*
X545000Y883624D01*
D02*
G37*
G36*
X535000Y883624D02*
X532687Y882666D01*
X529659Y880341D01*
X527334Y877313D01*
X526376Y875000D01*
X535000D01*
Y883624D01*
D02*
G37*
G36*
X966259Y887800D02*
X952800D01*
X939341D01*
X939881Y886496D01*
X941885Y883885D01*
X944496Y881881D01*
X947537Y880622D01*
X948927Y880439D01*
Y879158D01*
X947641Y878989D01*
X944698Y877769D01*
X942170Y875830D01*
X940231Y873302D01*
X939011Y870359D01*
X938596Y867200D01*
X939011Y864041D01*
X940231Y861098D01*
X942170Y858570D01*
X944698Y856631D01*
X947641Y855411D01*
X950800Y854996D01*
X954800D01*
X957959Y855411D01*
X960902Y856631D01*
X963430Y858570D01*
X965369Y861098D01*
X966589Y864041D01*
X967004Y867200D01*
X966589Y870359D01*
X965369Y873302D01*
X963430Y875830D01*
X960902Y877769D01*
X957959Y878989D01*
X956673Y879158D01*
Y880439D01*
X958063Y880622D01*
X961104Y881881D01*
X963715Y883885D01*
X965719Y886496D01*
X966259Y887800D01*
D02*
G37*
G36*
X804000Y887704D02*
X799766Y887288D01*
X795694Y886052D01*
X791942Y884047D01*
X788653Y881347D01*
X785953Y878058D01*
X783948Y874306D01*
X782712Y870234D01*
X782296Y866000D01*
X782712Y861766D01*
X783948Y857694D01*
X785953Y853942D01*
X788653Y850653D01*
X791942Y847953D01*
X795694Y845948D01*
X799766Y844713D01*
X804000Y844296D01*
X808234Y844713D01*
X812306Y845948D01*
X816058Y847953D01*
X819347Y850653D01*
X822047Y853942D01*
X824052Y857694D01*
X825287Y861766D01*
X825704Y866000D01*
X825287Y870234D01*
X824052Y874306D01*
X822047Y878058D01*
X819347Y881347D01*
X816058Y884047D01*
X812306Y886052D01*
X808234Y887288D01*
X804000Y887704D01*
D02*
G37*
G36*
X602000Y886704D02*
X597766Y886288D01*
X593694Y885052D01*
X589942Y883047D01*
X586653Y880347D01*
X583953Y877058D01*
X581948Y873306D01*
X580713Y869234D01*
X580295Y865000D01*
X580713Y860766D01*
X581948Y856694D01*
X583953Y852942D01*
X586653Y849653D01*
X589942Y846953D01*
X593694Y844948D01*
X597766Y843712D01*
X602000Y843296D01*
X606234Y843712D01*
X610306Y844948D01*
X614058Y846953D01*
X617347Y849653D01*
X620047Y852942D01*
X622052Y856694D01*
X623288Y860766D01*
X623704Y865000D01*
X623288Y869234D01*
X622052Y873306D01*
X620047Y877058D01*
X617347Y880347D01*
X614058Y883047D01*
X610306Y885052D01*
X606234Y886288D01*
X602000Y886704D01*
D02*
G37*
G36*
X969000Y850624D02*
Y842000D01*
X977624D01*
X976666Y844313D01*
X974342Y847342D01*
X971313Y849666D01*
X969000Y850624D01*
D02*
G37*
G36*
X959000D02*
X956687Y849666D01*
X953659Y847342D01*
X951334Y844313D01*
X950376Y842000D01*
X959000D01*
Y850624D01*
D02*
G37*
G36*
X895000Y843624D02*
Y835000D01*
X903624D01*
X902666Y837312D01*
X900341Y840341D01*
X897313Y842666D01*
X895000Y843624D01*
D02*
G37*
G36*
X553624Y865000D02*
X540000D01*
X526376D01*
X527334Y862688D01*
X529659Y859659D01*
X532687Y857334D01*
X536215Y855873D01*
X539231Y855476D01*
X539515Y855439D01*
Y854158D01*
X539231Y854120D01*
X536319Y853737D01*
X532889Y852316D01*
X529944Y850056D01*
X527684Y847111D01*
X526263Y843681D01*
X525778Y840000D01*
X526263Y836319D01*
X527684Y832889D01*
X529944Y829944D01*
X532889Y827684D01*
X536319Y826263D01*
X540000Y825778D01*
X543681Y826263D01*
X547111Y827684D01*
X550056Y829944D01*
X552316Y832889D01*
X553737Y836319D01*
X554222Y840000D01*
X553737Y843681D01*
X552316Y847111D01*
X550056Y850056D01*
X547111Y852316D01*
X543681Y853737D01*
X540769Y854120D01*
X540485Y854158D01*
Y855439D01*
X540769Y855476D01*
X543785Y855873D01*
X547313Y857334D01*
X550341Y859659D01*
X552666Y862688D01*
X553624Y865000D01*
D02*
G37*
G36*
X825000Y833624D02*
Y825000D01*
X833624D01*
X832666Y827313D01*
X830341Y830341D01*
X827313Y832666D01*
X825000Y833624D01*
D02*
G37*
G36*
X815000Y833624D02*
X812688Y832666D01*
X809659Y830341D01*
X807334Y827313D01*
X806376Y825000D01*
X815000D01*
Y833624D01*
D02*
G37*
G36*
X977624Y832000D02*
X969000D01*
Y823376D01*
X971313Y824334D01*
X974342Y826658D01*
X976666Y829687D01*
X977624Y832000D01*
D02*
G37*
G36*
X959000D02*
X950376D01*
X951334Y829687D01*
X953659Y826658D01*
X956687Y824334D01*
X959000Y823376D01*
Y832000D01*
D02*
G37*
G36*
X700000Y849222D02*
X696319Y848737D01*
X692889Y847316D01*
X689944Y845056D01*
X687684Y842111D01*
X686263Y838681D01*
X685778Y835000D01*
X686263Y831319D01*
X687684Y827889D01*
X689944Y824944D01*
X692889Y822684D01*
X696319Y821263D01*
X700000Y820778D01*
X703681Y821263D01*
X707111Y822684D01*
X710056Y824944D01*
X712316Y827889D01*
X713737Y831319D01*
X714222Y835000D01*
X713737Y838681D01*
X712316Y842111D01*
X710056Y845056D01*
X707111Y847316D01*
X703681Y848737D01*
X700000Y849222D01*
D02*
G37*
G36*
X567900Y821559D02*
X566596Y821019D01*
X563985Y819015D01*
X561981Y816404D01*
X561027Y814100D01*
X567900D01*
Y821559D01*
D02*
G37*
G36*
X661200Y822200D02*
X637000D01*
Y813974D01*
X635730Y813721D01*
X634619Y816404D01*
X632615Y819015D01*
X630004Y821019D01*
X628700Y821559D01*
Y809100D01*
Y796641D01*
X630004Y797181D01*
X632615Y799185D01*
X634619Y801796D01*
X635730Y804479D01*
X637000Y804226D01*
Y796000D01*
X661200D01*
Y822200D01*
D02*
G37*
G36*
X598300Y822304D02*
X595141Y821889D01*
X592198Y820669D01*
X589670Y818730D01*
X587731Y816202D01*
X586511Y813259D01*
X586442Y812733D01*
X585161D01*
X585078Y813363D01*
X583819Y816404D01*
X581815Y819015D01*
X579204Y821019D01*
X577900Y821559D01*
Y809100D01*
Y796641D01*
X579204Y797181D01*
X581815Y799185D01*
X583819Y801796D01*
X585078Y804837D01*
X585161Y805467D01*
X586442D01*
X586511Y804941D01*
X587731Y801998D01*
X589670Y799470D01*
X592198Y797531D01*
X595141Y796311D01*
X598300Y795896D01*
X601459Y796311D01*
X604402Y797531D01*
X606930Y799470D01*
X608869Y801998D01*
X610089Y804941D01*
X610158Y805467D01*
X611439D01*
X611522Y804837D01*
X612781Y801796D01*
X614785Y799185D01*
X617396Y797181D01*
X618700Y796641D01*
Y809100D01*
Y821559D01*
X617396Y821019D01*
X614785Y819015D01*
X612781Y816404D01*
X611522Y813363D01*
X611439Y812733D01*
X610158D01*
X610089Y813259D01*
X608869Y816202D01*
X606930Y818730D01*
X604402Y820669D01*
X601459Y821889D01*
X598300Y822304D01*
D02*
G37*
G36*
X740000Y855222D02*
X736319Y854737D01*
X732889Y853316D01*
X729944Y851056D01*
X727684Y848111D01*
X726263Y844681D01*
X725778Y841000D01*
X726263Y837319D01*
X727684Y833889D01*
X728461Y832876D01*
X716193Y820607D01*
X715135Y819229D01*
X714470Y817623D01*
X714243Y815900D01*
Y810778D01*
X712973Y810525D01*
X712316Y812111D01*
X710056Y815056D01*
X707111Y817316D01*
X703681Y818737D01*
X700000Y819222D01*
X696319Y818737D01*
X692889Y817316D01*
X689944Y815056D01*
X687684Y812111D01*
X686263Y808681D01*
X685778Y805000D01*
X686263Y801319D01*
X687684Y797889D01*
X689944Y794944D01*
X692889Y792684D01*
X696319Y791263D01*
X700000Y790778D01*
X703681Y791263D01*
X707111Y792684D01*
X708669Y793879D01*
X709508Y792922D01*
X701243Y784657D01*
X643203D01*
X641480Y784430D01*
X639874Y783765D01*
X638496Y782707D01*
X601472Y745683D01*
X601459Y745689D01*
X598300Y746104D01*
X595141Y745689D01*
X592198Y744469D01*
X589670Y742530D01*
X587731Y740002D01*
X586511Y737059D01*
X586241Y735001D01*
X584959D01*
X584689Y737059D01*
X583469Y740002D01*
X581530Y742530D01*
X579002Y744469D01*
X576059Y745689D01*
X572900Y746104D01*
X569741Y745689D01*
X566798Y744469D01*
X564270Y742530D01*
X562331Y740002D01*
X561111Y737059D01*
X560696Y733900D01*
Y731900D01*
X561111Y728741D01*
X562331Y725798D01*
X564270Y723270D01*
X566798Y721331D01*
X569741Y720111D01*
X572900Y719696D01*
X576059Y720111D01*
X579002Y721331D01*
X581530Y723270D01*
X583469Y725798D01*
X584689Y728741D01*
X584959Y730799D01*
X586241D01*
X586511Y728741D01*
X587731Y725798D01*
X589670Y723270D01*
X592198Y721331D01*
X595141Y720111D01*
X598300Y719696D01*
X601459Y720111D01*
X604402Y721331D01*
X606930Y723270D01*
X608869Y725798D01*
X610089Y728741D01*
X610359Y730799D01*
X611641D01*
X611911Y728741D01*
X613131Y725798D01*
X615070Y723270D01*
X617598Y721331D01*
X620541Y720111D01*
X623700Y719696D01*
X626859Y720111D01*
X629802Y721331D01*
X632330Y723270D01*
X634269Y725798D01*
X635489Y728741D01*
X635760Y730799D01*
X637040D01*
X637311Y728741D01*
X638531Y725798D01*
X640470Y723270D01*
X642998Y721331D01*
X645941Y720111D01*
X649100Y719696D01*
X652259Y720111D01*
X655202Y721331D01*
X657730Y723270D01*
X659669Y725798D01*
X660889Y728741D01*
X661304Y731900D01*
Y733900D01*
X660889Y737059D01*
X659669Y740002D01*
X657730Y742530D01*
X655202Y744469D01*
X652259Y745689D01*
X649100Y746104D01*
X645941Y745689D01*
X642998Y744469D01*
X640470Y742530D01*
X638531Y740002D01*
X637311Y737059D01*
X637040Y735001D01*
X635760D01*
X635489Y737059D01*
X634269Y740002D01*
X632330Y742530D01*
X629802Y744469D01*
X626859Y745689D01*
X623700Y746104D01*
X622338Y745925D01*
X621745Y747128D01*
X645960Y771343D01*
X704000D01*
X705723Y771570D01*
X707328Y772235D01*
X708707Y773293D01*
X724720Y789306D01*
X726061Y788851D01*
X726263Y787319D01*
X727684Y783889D01*
X729944Y780944D01*
X732889Y778684D01*
X736319Y777263D01*
X740000Y776778D01*
X743681Y777263D01*
X747111Y778684D01*
X750056Y780944D01*
X752316Y783889D01*
X753737Y787319D01*
X754222Y791000D01*
X753737Y794681D01*
X752316Y798111D01*
X750056Y801056D01*
X747111Y803316D01*
X743681Y804737D01*
X740000Y805222D01*
X736319Y804737D01*
X732889Y803316D01*
X729944Y801056D01*
X728827Y799601D01*
X727557Y800032D01*
Y813143D01*
X741374Y826959D01*
X743681Y827263D01*
X747111Y828684D01*
X750056Y830944D01*
X752316Y833889D01*
X753737Y837319D01*
X754222Y841000D01*
X753737Y844681D01*
X752316Y848111D01*
X750056Y851056D01*
X747111Y853316D01*
X743681Y854737D01*
X740000Y855222D01*
D02*
G37*
G36*
X815000Y815000D02*
X806376D01*
X807334Y812688D01*
X809659Y809659D01*
X812688Y807334D01*
X815000Y806376D01*
Y815000D01*
D02*
G37*
G36*
X833624D02*
X825000D01*
Y806376D01*
X827313Y807334D01*
X830341Y809659D01*
X832666Y812688D01*
X833624Y815000D01*
D02*
G37*
G36*
X775000Y834222D02*
X771319Y833737D01*
X767889Y832316D01*
X764944Y830056D01*
X762684Y827111D01*
X761263Y823681D01*
X760778Y820000D01*
X761263Y816319D01*
X762684Y812889D01*
X764944Y809944D01*
X767889Y807684D01*
X771319Y806263D01*
X775000Y805778D01*
X778681Y806263D01*
X782111Y807684D01*
X785056Y809944D01*
X787316Y812889D01*
X788737Y816319D01*
X789222Y820000D01*
X788737Y823681D01*
X787316Y827111D01*
X785056Y830056D01*
X782111Y832316D01*
X778681Y833737D01*
X775000Y834222D01*
D02*
G37*
G36*
X567900Y804100D02*
X561027D01*
X561981Y801796D01*
X563985Y799185D01*
X566596Y797181D01*
X567900Y796641D01*
Y804100D01*
D02*
G37*
G36*
X540000Y824222D02*
X536319Y823737D01*
X532889Y822316D01*
X529944Y820056D01*
X527684Y817111D01*
X526263Y813681D01*
X525778Y810000D01*
X526263Y806319D01*
X527684Y802889D01*
X529944Y799944D01*
X532889Y797684D01*
X536319Y796263D01*
X540000Y795778D01*
X543681Y796263D01*
X547111Y797684D01*
X550056Y799944D01*
X552316Y802889D01*
X553737Y806319D01*
X554222Y810000D01*
X553737Y813681D01*
X552316Y817111D01*
X550056Y820056D01*
X547111Y822316D01*
X543681Y823737D01*
X540000Y824222D01*
D02*
G37*
G36*
X860000Y844222D02*
X856319Y843737D01*
X852889Y842316D01*
X849944Y840056D01*
X847684Y837111D01*
X846263Y833681D01*
X845778Y830000D01*
X846263Y826319D01*
X847684Y822889D01*
X849944Y819944D01*
X852889Y817684D01*
X856319Y816263D01*
X860000Y815778D01*
X863681Y816263D01*
X867111Y817684D01*
X870056Y819944D01*
X872316Y822889D01*
X873737Y826319D01*
X874120Y829231D01*
X874158Y829515D01*
X875439D01*
X875476Y829231D01*
X875873Y826215D01*
X877334Y822687D01*
X879659Y819659D01*
X882687Y817334D01*
X886215Y815873D01*
X889231Y815476D01*
X889515Y815439D01*
Y814158D01*
X889231Y814120D01*
X886319Y813737D01*
X882889Y812316D01*
X879944Y810056D01*
X877684Y807111D01*
X876263Y803681D01*
X875778Y800000D01*
X876263Y796319D01*
X877684Y792889D01*
X879944Y789944D01*
X882889Y787684D01*
X886319Y786263D01*
X890000Y785778D01*
X893681Y786263D01*
X897111Y787684D01*
X900056Y789944D01*
X902316Y792889D01*
X903737Y796319D01*
X904222Y800000D01*
X903737Y803681D01*
X902316Y807111D01*
X900056Y810056D01*
X897111Y812316D01*
X893681Y813737D01*
X890769Y814120D01*
X890485Y814158D01*
Y815439D01*
X890769Y815476D01*
X893785Y815873D01*
X897313Y817334D01*
X900341Y819659D01*
X902666Y822687D01*
X903624Y825000D01*
X890000D01*
Y830000D01*
X885000D01*
Y843624D01*
X882687Y842666D01*
X879659Y840341D01*
X877334Y837312D01*
X875873Y833785D01*
X875476Y830769D01*
X875439Y830485D01*
X874158D01*
X874120Y830769D01*
X873737Y833681D01*
X872316Y837111D01*
X870056Y840056D01*
X867111Y842316D01*
X863681Y843737D01*
X860000Y844222D01*
D02*
G37*
G36*
X855000Y795222D02*
X851319Y794737D01*
X847889Y793316D01*
X844944Y791056D01*
X842684Y788111D01*
X841263Y784681D01*
X840880Y781769D01*
X840842Y781485D01*
X839561Y781485D01*
X839524Y781769D01*
X839127Y784785D01*
X837666Y788313D01*
X835341Y791341D01*
X832313Y793666D01*
X830000Y794624D01*
Y781000D01*
Y767376D01*
X832313Y768334D01*
X835341Y770658D01*
X837666Y773687D01*
X839127Y777215D01*
X839524Y780231D01*
X839561Y780515D01*
X840842Y780515D01*
X840880Y780231D01*
X841263Y777319D01*
X842684Y773889D01*
X844944Y770944D01*
X847889Y768684D01*
X851319Y767263D01*
X855000Y766778D01*
X856612Y766991D01*
X856944Y765753D01*
X855889Y765316D01*
X852944Y763056D01*
X850684Y760111D01*
X849263Y756681D01*
X849068Y755201D01*
X847765Y755029D01*
X847316Y756111D01*
X845056Y759056D01*
X842111Y761316D01*
X838681Y762737D01*
X835000Y763222D01*
X831319Y762737D01*
X827889Y761316D01*
X824944Y759056D01*
X822684Y756111D01*
X821263Y752681D01*
X820778Y749000D01*
X821263Y745319D01*
X822684Y741889D01*
X824944Y738944D01*
X827889Y736684D01*
X831319Y735263D01*
X835000Y734778D01*
X838681Y735263D01*
X842111Y736684D01*
X845056Y738944D01*
X847316Y741889D01*
X848737Y745319D01*
X848932Y746799D01*
X850236Y746971D01*
X850684Y745889D01*
X852944Y742944D01*
X855889Y740684D01*
X859319Y739263D01*
X863000Y738778D01*
X866681Y739263D01*
X870111Y740684D01*
X873056Y742944D01*
X875316Y745889D01*
X876737Y749319D01*
X877222Y753000D01*
X876737Y756681D01*
X875316Y760111D01*
X873056Y763056D01*
X870111Y765316D01*
X866681Y766737D01*
X863000Y767222D01*
X861387Y767009D01*
X861056Y768247D01*
X862111Y768684D01*
X865056Y770944D01*
X867316Y773889D01*
X868737Y777319D01*
X869222Y781000D01*
X868737Y784681D01*
X867316Y788111D01*
X865056Y791056D01*
X862111Y793316D01*
X858681Y794737D01*
X855000Y795222D01*
D02*
G37*
G36*
X920000Y814222D02*
X916319Y813737D01*
X912889Y812316D01*
X909944Y810056D01*
X907684Y807111D01*
X906263Y803681D01*
X905778Y800000D01*
X906263Y796319D01*
X907684Y792889D01*
X909944Y789944D01*
X912889Y787684D01*
X916319Y786263D01*
X918540Y785971D01*
X919101Y784616D01*
X917334Y782313D01*
X916376Y780000D01*
X943624D01*
X942666Y782313D01*
X940341Y785341D01*
X937313Y787666D01*
X933785Y789127D01*
X931283Y789456D01*
X930722Y790811D01*
X932316Y792889D01*
X933737Y796319D01*
X934222Y800000D01*
X933737Y803681D01*
X932316Y807111D01*
X930056Y810056D01*
X927111Y812316D01*
X923681Y813737D01*
X920000Y814222D01*
D02*
G37*
G36*
X964000Y801222D02*
X960319Y800737D01*
X956889Y799316D01*
X953944Y797056D01*
X951684Y794111D01*
X950263Y790681D01*
X949778Y787000D01*
X950263Y783319D01*
X951684Y779889D01*
X953944Y776944D01*
X956889Y774684D01*
X960319Y773263D01*
X964000Y772778D01*
X967681Y773263D01*
X971111Y774684D01*
X974056Y776944D01*
X976316Y779889D01*
X977737Y783319D01*
X978222Y787000D01*
X977737Y790681D01*
X976316Y794111D01*
X974056Y797056D01*
X971111Y799316D01*
X967681Y800737D01*
X964000Y801222D01*
D02*
G37*
G36*
X797500Y804222D02*
X793819Y803737D01*
X790389Y802316D01*
X787444Y800056D01*
X785184Y797111D01*
X783763Y793681D01*
X783278Y790000D01*
X783763Y786319D01*
X785184Y782889D01*
X787444Y779944D01*
X790389Y777684D01*
X793819Y776263D01*
X797500Y775778D01*
X801181Y776263D01*
X804611Y777684D01*
X807556Y779944D01*
X809245Y782144D01*
X810459Y781641D01*
X810375Y781000D01*
X810873Y777215D01*
X812334Y773687D01*
X814659Y770658D01*
X817687Y768334D01*
X820000Y767376D01*
Y781000D01*
Y794624D01*
X817687Y793666D01*
X814659Y791341D01*
X812873Y789014D01*
X811658Y789518D01*
X811722Y790000D01*
X811237Y793681D01*
X809816Y797111D01*
X807556Y800056D01*
X804611Y802316D01*
X801181Y803737D01*
X797500Y804222D01*
D02*
G37*
G36*
X540000Y794222D02*
X536319Y793737D01*
X532889Y792316D01*
X529944Y790056D01*
X527684Y787111D01*
X526263Y783681D01*
X525778Y780000D01*
X526263Y776319D01*
X527684Y772889D01*
X529944Y769944D01*
X532889Y767684D01*
X536319Y766263D01*
X540000Y765778D01*
X543681Y766263D01*
X547111Y767684D01*
X550056Y769944D01*
X552316Y772889D01*
X553737Y776319D01*
X554222Y780000D01*
X553737Y783681D01*
X552316Y787111D01*
X550056Y790056D01*
X547111Y792316D01*
X543681Y793737D01*
X540000Y794222D01*
D02*
G37*
G36*
X775000Y774222D02*
X771319Y773737D01*
X767889Y772316D01*
X764944Y770056D01*
X762684Y767111D01*
X761263Y763681D01*
X760778Y760000D01*
X761263Y756319D01*
X762684Y752889D01*
X764944Y749944D01*
X767889Y747684D01*
X771319Y746263D01*
X775000Y745778D01*
X778681Y746263D01*
X782111Y747684D01*
X785056Y749944D01*
X787316Y752889D01*
X788737Y756319D01*
X789222Y760000D01*
X788737Y763681D01*
X787316Y767111D01*
X785056Y770056D01*
X782111Y772316D01*
X778681Y773737D01*
X775000Y774222D01*
D02*
G37*
G36*
X745000D02*
X741319Y773737D01*
X737889Y772316D01*
X734944Y770056D01*
X732684Y767111D01*
X731263Y763681D01*
X730778Y760000D01*
X731263Y756319D01*
X732684Y752889D01*
X734944Y749944D01*
X737889Y747684D01*
X741319Y746263D01*
X745000Y745778D01*
X748681Y746263D01*
X752111Y747684D01*
X755056Y749944D01*
X757316Y752889D01*
X758737Y756319D01*
X759222Y760000D01*
X758737Y763681D01*
X757316Y767111D01*
X755056Y770056D01*
X752111Y772316D01*
X748681Y773737D01*
X745000Y774222D01*
D02*
G37*
G36*
X805000Y763222D02*
X801319Y762737D01*
X797889Y761316D01*
X794944Y759056D01*
X792684Y756111D01*
X791263Y752681D01*
X790778Y749000D01*
X791263Y745319D01*
X792684Y741889D01*
X794944Y738944D01*
X797889Y736684D01*
X801319Y735263D01*
X805000Y734778D01*
X808681Y735263D01*
X812111Y736684D01*
X815056Y738944D01*
X817316Y741889D01*
X818737Y745319D01*
X819222Y749000D01*
X818737Y752681D01*
X817316Y756111D01*
X815056Y759056D01*
X812111Y761316D01*
X808681Y762737D01*
X805000Y763222D01*
D02*
G37*
G36*
X970000Y750500D02*
X966972Y750101D01*
X964150Y748933D01*
X961727Y747073D01*
X959867Y744650D01*
X958699Y741828D01*
X958300Y738800D01*
X958699Y735772D01*
X959867Y732950D01*
X961727Y730527D01*
X964150Y728667D01*
X966972Y727499D01*
X970000Y727100D01*
X973028Y727499D01*
X975850Y728667D01*
X978273Y730527D01*
X980133Y732950D01*
X981301Y735772D01*
X981700Y738800D01*
X981301Y741828D01*
X980133Y744650D01*
X978273Y747073D01*
X975850Y748933D01*
X973028Y750101D01*
X970000Y750500D01*
D02*
G37*
G36*
X893000Y745222D02*
X889319Y744737D01*
X885889Y743316D01*
X882944Y741056D01*
X880684Y738111D01*
X879263Y734681D01*
X878778Y731000D01*
X879263Y727319D01*
X880684Y723889D01*
X882944Y720944D01*
X885889Y718684D01*
X889319Y717263D01*
X893000Y716778D01*
X896681Y717263D01*
X900111Y718684D01*
X903056Y720944D01*
X905316Y723889D01*
X906737Y727319D01*
X907222Y731000D01*
X906737Y734681D01*
X905316Y738111D01*
X903056Y741056D01*
X900111Y743316D01*
X896681Y744737D01*
X893000Y745222D01*
D02*
G37*
G36*
X943624Y770000D02*
X916376D01*
X917334Y767687D01*
X919659Y764659D01*
X922687Y762334D01*
X926215Y760873D01*
X929231Y760476D01*
X929515Y760439D01*
Y759158D01*
X929231Y759120D01*
X926319Y758737D01*
X922889Y757316D01*
X919944Y755056D01*
X917684Y752111D01*
X916263Y748681D01*
X915778Y745000D01*
X916263Y741319D01*
X917684Y737889D01*
X919901Y735000D01*
X917684Y732111D01*
X916263Y728681D01*
X915778Y725000D01*
X916263Y721319D01*
X917684Y717889D01*
X919944Y714944D01*
X922889Y712684D01*
X926319Y711263D01*
X930000Y710778D01*
X933681Y711263D01*
X937111Y712684D01*
X940056Y714944D01*
X942316Y717889D01*
X943737Y721319D01*
X944222Y725000D01*
X943737Y728681D01*
X942316Y732111D01*
X940099Y735000D01*
X942316Y737889D01*
X943737Y741319D01*
X944222Y745000D01*
X943737Y748681D01*
X942316Y752111D01*
X940056Y755056D01*
X937111Y757316D01*
X933681Y758737D01*
X930769Y759120D01*
X930485Y759158D01*
Y760439D01*
X930769Y760476D01*
X933785Y760873D01*
X937313Y762334D01*
X940341Y764659D01*
X942666Y767687D01*
X943624Y770000D01*
D02*
G37*
G36*
X740000Y737222D02*
X736319Y736737D01*
X732889Y735316D01*
X729944Y733056D01*
X727684Y730111D01*
X726263Y726681D01*
X725778Y723000D01*
X726263Y719319D01*
X727684Y715889D01*
X729944Y712944D01*
X732889Y710684D01*
X736319Y709263D01*
X740000Y708778D01*
X743681Y709263D01*
X747111Y710684D01*
X750056Y712944D01*
X752316Y715889D01*
X753737Y719319D01*
X754222Y723000D01*
X753737Y726681D01*
X752316Y730111D01*
X750056Y733056D01*
X747111Y735316D01*
X743681Y736737D01*
X740000Y737222D01*
D02*
G37*
G36*
X863000Y723222D02*
X859319Y722737D01*
X855889Y721316D01*
X852944Y719056D01*
X850684Y716111D01*
X849263Y712681D01*
X848778Y709000D01*
X849184Y705922D01*
X847946Y705590D01*
X847316Y707111D01*
X845056Y710056D01*
X842111Y712316D01*
X838681Y713737D01*
X835000Y714222D01*
X831319Y713737D01*
X827889Y712316D01*
X824944Y710056D01*
X822684Y707111D01*
X821263Y703681D01*
X820778Y700000D01*
X821263Y696319D01*
X822684Y692889D01*
X824944Y689944D01*
X827889Y687684D01*
X831319Y686263D01*
X835000Y685778D01*
X838681Y686263D01*
X842111Y687684D01*
X845056Y689944D01*
X847316Y692889D01*
X848737Y696319D01*
X849222Y700000D01*
X848816Y703078D01*
X850054Y703410D01*
X850684Y701889D01*
X852944Y698944D01*
X855889Y696684D01*
X859319Y695263D01*
X863000Y694778D01*
X866681Y695263D01*
X870111Y696684D01*
X873056Y698944D01*
X875316Y701889D01*
X876737Y705319D01*
X877222Y709000D01*
X876737Y712681D01*
X875316Y716111D01*
X873056Y719056D01*
X870111Y721316D01*
X866681Y722737D01*
X863000Y723222D01*
D02*
G37*
G36*
X595000Y708624D02*
X592687Y707666D01*
X589659Y705341D01*
X587334Y702313D01*
X586376Y700000D01*
X595000D01*
Y708624D01*
D02*
G37*
G36*
X630000Y709222D02*
X626319Y708737D01*
X622889Y707316D01*
X619944Y705056D01*
X617684Y702111D01*
X616263Y698681D01*
X615880Y695769D01*
X615842Y695485D01*
X614561Y695485D01*
X614524Y695769D01*
X614127Y698785D01*
X612666Y702313D01*
X610341Y705341D01*
X607313Y707666D01*
X605000Y708624D01*
Y695000D01*
X600000D01*
Y690000D01*
X586376D01*
X587334Y687687D01*
X589659Y684659D01*
X592687Y682334D01*
X596215Y680873D01*
X599231Y680476D01*
X599515Y680439D01*
Y679158D01*
X599231Y679120D01*
X596319Y678737D01*
X592889Y677316D01*
X589944Y675056D01*
X587684Y672111D01*
X586263Y668681D01*
X585778Y665000D01*
X586263Y661319D01*
X587684Y657889D01*
X589944Y654944D01*
X592889Y652684D01*
X596319Y651263D01*
X600000Y650778D01*
X603681Y651263D01*
X607111Y652684D01*
X610056Y654944D01*
X612316Y657889D01*
X613737Y661319D01*
X614222Y665000D01*
X613737Y668681D01*
X612316Y672111D01*
X610056Y675056D01*
X607111Y677316D01*
X603681Y678737D01*
X600769Y679120D01*
X600485Y679158D01*
Y680439D01*
X600769Y680476D01*
X603785Y680873D01*
X607313Y682334D01*
X610341Y684659D01*
X612666Y687687D01*
X614127Y691215D01*
X614524Y694231D01*
X614561Y694515D01*
X615842Y694515D01*
X615880Y694231D01*
X616263Y691319D01*
X617684Y687889D01*
X619944Y684944D01*
X622889Y682684D01*
X626319Y681263D01*
X630000Y680778D01*
X633681Y681263D01*
X637111Y682684D01*
X640056Y684944D01*
X642316Y687889D01*
X643737Y691319D01*
X644222Y695000D01*
X643737Y698681D01*
X642316Y702111D01*
X640056Y705056D01*
X637111Y707316D01*
X633681Y708737D01*
X630000Y709222D01*
D02*
G37*
G36*
X770000Y715222D02*
X766319Y714737D01*
X762889Y713316D01*
X759944Y711056D01*
X757684Y708111D01*
X756263Y704681D01*
X755778Y701000D01*
X756263Y697319D01*
X757684Y693889D01*
X759944Y690944D01*
X762889Y688684D01*
X766319Y687263D01*
X770000Y686778D01*
X773681Y687263D01*
X777111Y688684D01*
X780056Y690944D01*
X782316Y693889D01*
X783737Y697319D01*
X784222Y701000D01*
X783737Y704681D01*
X782316Y708111D01*
X780056Y711056D01*
X777111Y713316D01*
X773681Y714737D01*
X770000Y715222D01*
D02*
G37*
G36*
X805000Y714222D02*
X801319Y713737D01*
X797889Y712316D01*
X794944Y710056D01*
X792684Y707111D01*
X791263Y703681D01*
X790778Y700000D01*
X791263Y696319D01*
X792684Y692889D01*
X794944Y689944D01*
X797889Y687684D01*
X801319Y686263D01*
X805000Y685778D01*
X808681Y686263D01*
X812111Y687684D01*
X815056Y689944D01*
X817316Y692889D01*
X818737Y696319D01*
X819222Y700000D01*
X818737Y703681D01*
X817316Y707111D01*
X815056Y710056D01*
X812111Y712316D01*
X808681Y713737D01*
X805000Y714222D01*
D02*
G37*
G36*
X542000Y735004D02*
X538000D01*
X534841Y734589D01*
X531898Y733369D01*
X529370Y731430D01*
X527431Y728902D01*
X526211Y725959D01*
X525796Y722800D01*
X526211Y719641D01*
X527431Y716698D01*
X529370Y714170D01*
X531898Y712231D01*
X534841Y711011D01*
X537659Y710640D01*
Y709360D01*
X534841Y708989D01*
X531898Y707769D01*
X529370Y705830D01*
X527431Y703302D01*
X526211Y700359D01*
X525796Y697200D01*
X526211Y694041D01*
X527431Y691098D01*
X529370Y688570D01*
X531898Y686631D01*
X534841Y685411D01*
X538000Y684996D01*
X542000D01*
X545159Y685411D01*
X548102Y686631D01*
X550630Y688570D01*
X552569Y691098D01*
X553789Y694041D01*
X554204Y697200D01*
X553789Y700359D01*
X552569Y703302D01*
X550630Y705830D01*
X548102Y707769D01*
X545159Y708989D01*
X542341Y709360D01*
Y710640D01*
X545159Y711011D01*
X548102Y712231D01*
X550630Y714170D01*
X552569Y716698D01*
X553789Y719641D01*
X554204Y722800D01*
X553789Y725959D01*
X552569Y728902D01*
X550630Y731430D01*
X548102Y733369D01*
X545159Y734589D01*
X542000Y735004D01*
D02*
G37*
G36*
X910000Y689624D02*
Y681000D01*
X918624D01*
X917666Y683313D01*
X915341Y686341D01*
X912313Y688666D01*
X910000Y689624D01*
D02*
G37*
G36*
X930000Y709222D02*
X926319Y708737D01*
X922889Y707316D01*
X919944Y705056D01*
X917684Y702111D01*
X916263Y698681D01*
X915778Y695000D01*
X916263Y691319D01*
X917684Y687889D01*
X919944Y684944D01*
X922889Y682684D01*
X926319Y681263D01*
X930000Y680778D01*
X933681Y681263D01*
X937111Y682684D01*
X940056Y684944D01*
X942316Y687889D01*
X943737Y691319D01*
X944222Y695000D01*
X943737Y698681D01*
X942316Y702111D01*
X940056Y705056D01*
X937111Y707316D01*
X933681Y708737D01*
X930000Y709222D01*
D02*
G37*
G36*
X970000Y701700D02*
X966972Y701301D01*
X964150Y700133D01*
X961727Y698273D01*
X959867Y695850D01*
X958699Y693028D01*
X958300Y690000D01*
X958699Y686972D01*
X959867Y684150D01*
X961727Y681727D01*
X964150Y679867D01*
X966972Y678699D01*
X970000Y678300D01*
X973028Y678699D01*
X975850Y679867D01*
X978273Y681727D01*
X980133Y684150D01*
X981301Y686972D01*
X981700Y690000D01*
X981301Y693028D01*
X980133Y695850D01*
X978273Y698273D01*
X975850Y700133D01*
X973028Y701301D01*
X970000Y701700D01*
D02*
G37*
G36*
X695000Y722004D02*
X691000D01*
X687841Y721589D01*
X684898Y720369D01*
X682370Y718430D01*
X680431Y715902D01*
X679211Y712959D01*
X678796Y709800D01*
X679211Y706641D01*
X680431Y703698D01*
X682370Y701170D01*
X684898Y699231D01*
X687841Y698011D01*
X690659Y697641D01*
Y696359D01*
X687841Y695989D01*
X684898Y694769D01*
X682370Y692830D01*
X680431Y690302D01*
X679211Y687359D01*
X678796Y684200D01*
X679211Y681041D01*
X680431Y678098D01*
X682370Y675570D01*
X684898Y673631D01*
X687841Y672411D01*
X691000Y671996D01*
X695000D01*
X698159Y672411D01*
X701102Y673631D01*
X703630Y675570D01*
X705569Y678098D01*
X706789Y681041D01*
X707204Y684200D01*
X706789Y687359D01*
X705569Y690302D01*
X703630Y692830D01*
X701102Y694769D01*
X698159Y695989D01*
X695341Y696359D01*
Y697641D01*
X698159Y698011D01*
X701102Y699231D01*
X703630Y701170D01*
X705569Y703698D01*
X706789Y706641D01*
X707204Y709800D01*
X706789Y712959D01*
X705569Y715902D01*
X703630Y718430D01*
X701102Y720369D01*
X698159Y721589D01*
X695000Y722004D01*
D02*
G37*
G36*
X740000Y693222D02*
X736319Y692737D01*
X732889Y691316D01*
X729944Y689056D01*
X727684Y686111D01*
X726263Y682681D01*
X725778Y679000D01*
X726263Y675319D01*
X727684Y671889D01*
X729944Y668944D01*
X732889Y666684D01*
X736319Y665263D01*
X740000Y664778D01*
X743681Y665263D01*
X747111Y666684D01*
X750056Y668944D01*
X752316Y671889D01*
X753737Y675319D01*
X754222Y679000D01*
X753737Y682681D01*
X752316Y686111D01*
X750056Y689056D01*
X747111Y691316D01*
X743681Y692737D01*
X740000Y693222D01*
D02*
G37*
G36*
X875000Y690222D02*
X871319Y689737D01*
X867889Y688316D01*
X864944Y686056D01*
X862684Y683111D01*
X861263Y679681D01*
X860778Y676000D01*
X861263Y672319D01*
X862684Y668889D01*
X864944Y665944D01*
X867889Y663684D01*
X871319Y662263D01*
X875000Y661778D01*
X878681Y662263D01*
X882111Y663684D01*
X885056Y665944D01*
X887316Y668889D01*
X888737Y672319D01*
X889120Y675231D01*
X889158Y675515D01*
X890439D01*
X890476Y675231D01*
X890873Y672215D01*
X892334Y668687D01*
X894659Y665658D01*
X897687Y663334D01*
X900000Y662376D01*
Y676000D01*
Y689624D01*
X897687Y688666D01*
X894659Y686341D01*
X892334Y683313D01*
X890873Y679785D01*
X890476Y676769D01*
X890439Y676485D01*
X889158D01*
X889120Y676769D01*
X888737Y679681D01*
X887316Y683111D01*
X885056Y686056D01*
X882111Y688316D01*
X878681Y689737D01*
X875000Y690222D01*
D02*
G37*
G36*
X918624Y671000D02*
X910000D01*
Y662376D01*
X912313Y663334D01*
X915341Y665658D01*
X917666Y668687D01*
X918624Y671000D01*
D02*
G37*
G36*
X630000Y679222D02*
X626319Y678737D01*
X622889Y677316D01*
X619944Y675056D01*
X617684Y672111D01*
X616263Y668681D01*
X615778Y665000D01*
X616263Y661319D01*
X617684Y657889D01*
X619944Y654944D01*
X622889Y652684D01*
X626319Y651263D01*
X630000Y650778D01*
X633681Y651263D01*
X637111Y652684D01*
X640056Y654944D01*
X642316Y657889D01*
X643737Y661319D01*
X644222Y665000D01*
X643737Y668681D01*
X642316Y672111D01*
X640056Y675056D01*
X637111Y677316D01*
X633681Y678737D01*
X630000Y679222D01*
D02*
G37*
G36*
X790000Y679222D02*
X786319Y678737D01*
X782889Y677316D01*
X779944Y675056D01*
X777684Y672111D01*
X776263Y668681D01*
X775778Y665000D01*
X776263Y661319D01*
X777684Y657889D01*
X779944Y654944D01*
X782889Y652684D01*
X786319Y651263D01*
X790000Y650778D01*
X793681Y651263D01*
X797111Y652684D01*
X800056Y654944D01*
X802316Y657889D01*
X803737Y661319D01*
X804222Y665000D01*
X803737Y668681D01*
X802316Y672111D01*
X800056Y675056D01*
X797111Y677316D01*
X793681Y678737D01*
X790000Y679222D01*
D02*
G37*
G36*
X685000Y653541D02*
Y645000D01*
X692955D01*
X691792Y647808D01*
X689628Y650628D01*
X686808Y652792D01*
X685000Y653541D01*
D02*
G37*
G36*
X525000Y653624D02*
Y645000D01*
X533624D01*
X532666Y647312D01*
X530341Y650341D01*
X527313Y652666D01*
X525000Y653624D01*
D02*
G37*
G36*
X515000D02*
X512687Y652666D01*
X509659Y650341D01*
X507334Y647312D01*
X506376Y645000D01*
X515000D01*
Y653624D01*
D02*
G37*
G36*
X872500Y660717D02*
X844500D01*
X840950Y660250D01*
X837641Y658880D01*
X834800Y656700D01*
X832620Y653859D01*
X831250Y650550D01*
X830783Y647000D01*
X831250Y643450D01*
X832620Y640141D01*
X834800Y637300D01*
X837641Y635120D01*
X840950Y633750D01*
X844500Y633283D01*
X872500D01*
X876050Y633750D01*
X879359Y635120D01*
X882200Y637300D01*
X884380Y640141D01*
X885750Y643450D01*
X886217Y647000D01*
X885750Y650550D01*
X884380Y653859D01*
X882200Y656700D01*
X879359Y658880D01*
X876050Y660250D01*
X872500Y660717D01*
D02*
G37*
G36*
X692955Y635000D02*
X685000D01*
Y626459D01*
X686808Y627208D01*
X689628Y629372D01*
X691792Y632192D01*
X692955Y635000D01*
D02*
G37*
G36*
X655000Y654213D02*
X651580Y653763D01*
X648393Y652443D01*
X645657Y650343D01*
X643557Y647607D01*
X642237Y644420D01*
X641787Y641000D01*
Y639000D01*
X642237Y635580D01*
X643557Y632393D01*
X645657Y629657D01*
X648393Y627557D01*
X651580Y626237D01*
X655000Y625787D01*
X658420Y626237D01*
X661607Y627557D01*
X664343Y629657D01*
X666443Y632393D01*
X666648Y632890D01*
X667919D01*
X668208Y632192D01*
X670372Y629372D01*
X673192Y627208D01*
X675000Y626459D01*
Y640000D01*
Y653541D01*
X673192Y652792D01*
X670372Y650628D01*
X668208Y647808D01*
X667919Y647110D01*
X666648D01*
X666443Y647607D01*
X664343Y650343D01*
X661607Y652443D01*
X658420Y653763D01*
X655000Y654213D01*
D02*
G37*
G36*
X560000Y654222D02*
X556319Y653737D01*
X552889Y652316D01*
X549944Y650056D01*
X547684Y647111D01*
X546263Y643681D01*
X545778Y640000D01*
X546263Y636319D01*
X547684Y632889D01*
X549944Y629944D01*
X552889Y627684D01*
X556319Y626263D01*
X560000Y625778D01*
X563681Y626263D01*
X567111Y627684D01*
X570056Y629944D01*
X572316Y632889D01*
X573737Y636319D01*
X574222Y640000D01*
X573737Y643681D01*
X572316Y647111D01*
X570056Y650056D01*
X567111Y652316D01*
X563681Y653737D01*
X560000Y654222D01*
D02*
G37*
G36*
X980000Y649222D02*
X976319Y648737D01*
X972889Y647316D01*
X969944Y645056D01*
X967684Y642111D01*
X966263Y638681D01*
X965778Y635000D01*
X966263Y631319D01*
X967684Y627889D01*
X969944Y624944D01*
X972889Y622684D01*
X976319Y621263D01*
X980000Y620778D01*
X983681Y621263D01*
X987111Y622684D01*
X990056Y624944D01*
X992316Y627889D01*
X993737Y631319D01*
X994222Y635000D01*
X993737Y638681D01*
X992316Y642111D01*
X990056Y645056D01*
X987111Y647316D01*
X983681Y648737D01*
X980000Y649222D01*
D02*
G37*
G36*
X790000Y649222D02*
X786319Y648737D01*
X782889Y647316D01*
X779944Y645056D01*
X777684Y642111D01*
X776263Y638681D01*
X775778Y635000D01*
X776263Y631319D01*
X777684Y627889D01*
X779944Y624944D01*
X782889Y622684D01*
X786319Y621263D01*
X790000Y620778D01*
X793681Y621263D01*
X797111Y622684D01*
X800056Y624944D01*
X802316Y627889D01*
X803737Y631319D01*
X804222Y635000D01*
X803737Y638681D01*
X802316Y642111D01*
X800056Y645056D01*
X797111Y647316D01*
X793681Y648737D01*
X790000Y649222D01*
D02*
G37*
G36*
X910500Y644082D02*
Y620000D01*
X919621D01*
Y631000D01*
X919140Y634655D01*
X917729Y638060D01*
X915485Y640985D01*
X912560Y643229D01*
X910500Y644082D01*
D02*
G37*
G36*
X900500Y644082D02*
X898440Y643229D01*
X895515Y640985D01*
X893271Y638060D01*
X891860Y634655D01*
X891379Y631000D01*
Y620000D01*
X900500D01*
Y644082D01*
D02*
G37*
G36*
X950000Y644222D02*
X946319Y643737D01*
X942889Y642316D01*
X939944Y640056D01*
X937684Y637111D01*
X936263Y633681D01*
X935778Y630000D01*
X936263Y626319D01*
X937684Y622889D01*
X939944Y619944D01*
X942889Y617684D01*
X946319Y616263D01*
X950000Y615778D01*
X953681Y616263D01*
X957111Y617684D01*
X960056Y619944D01*
X962316Y622889D01*
X963737Y626319D01*
X964222Y630000D01*
X963737Y633681D01*
X962316Y637111D01*
X960056Y640056D01*
X957111Y642316D01*
X953681Y643737D01*
X950000Y644222D01*
D02*
G37*
G36*
X560000Y624222D02*
X556319Y623737D01*
X552889Y622316D01*
X549944Y620056D01*
X547684Y617111D01*
X546263Y613681D01*
X545778Y610000D01*
X546263Y606319D01*
X547684Y602889D01*
X549944Y599944D01*
X552889Y597684D01*
X556319Y596263D01*
X560000Y595778D01*
X563681Y596263D01*
X567111Y597684D01*
X570056Y599944D01*
X572316Y602889D01*
X573737Y606319D01*
X574222Y610000D01*
X573737Y613681D01*
X572316Y617111D01*
X570056Y620056D01*
X567111Y622316D01*
X563681Y623737D01*
X560000Y624222D01*
D02*
G37*
G36*
X533624Y635000D02*
X506376D01*
X507334Y632687D01*
X509659Y629659D01*
X512687Y627334D01*
X516215Y625873D01*
X519231Y625476D01*
X519515Y625439D01*
Y624158D01*
X519231Y624120D01*
X516319Y623737D01*
X512889Y622316D01*
X509944Y620056D01*
X507684Y617111D01*
X506263Y613681D01*
X505778Y610000D01*
X506263Y606319D01*
X507684Y602889D01*
X509944Y599944D01*
X512889Y597684D01*
X516319Y596263D01*
X520000Y595778D01*
X523681Y596263D01*
X527111Y597684D01*
X530056Y599944D01*
X532316Y602889D01*
X533737Y606319D01*
X534222Y610000D01*
X533737Y613681D01*
X532316Y617111D01*
X530056Y620056D01*
X527111Y622316D01*
X523681Y623737D01*
X520769Y624120D01*
X520485Y624158D01*
Y625439D01*
X520769Y625476D01*
X523785Y625873D01*
X527313Y627334D01*
X530341Y629659D01*
X532666Y632687D01*
X533624Y635000D01*
D02*
G37*
G36*
X711000Y607861D02*
Y594000D01*
X724861D01*
X724103Y596498D01*
X722292Y599886D01*
X719855Y602855D01*
X716886Y605292D01*
X713498Y607103D01*
X711000Y607861D01*
D02*
G37*
G36*
X609000D02*
Y594000D01*
X622861D01*
X622103Y596498D01*
X620292Y599886D01*
X617855Y602855D01*
X614886Y605292D01*
X611498Y607103D01*
X609000Y607861D01*
D02*
G37*
G36*
X701000Y607861D02*
X698502Y607103D01*
X695114Y605292D01*
X692145Y602855D01*
X689708Y599886D01*
X687897Y596498D01*
X687139Y594000D01*
X701000D01*
Y607861D01*
D02*
G37*
G36*
X599000D02*
X596502Y607103D01*
X593114Y605292D01*
X590145Y602855D01*
X587708Y599886D01*
X585897Y596498D01*
X585139Y594000D01*
X599000D01*
Y607861D01*
D02*
G37*
G36*
X980000Y619222D02*
X976319Y618737D01*
X972889Y617316D01*
X969944Y615056D01*
X967684Y612111D01*
X966263Y608681D01*
X965778Y605000D01*
X966263Y601319D01*
X967684Y597889D01*
X969944Y594944D01*
X972889Y592684D01*
X976319Y591263D01*
X980000Y590778D01*
X983681Y591263D01*
X987111Y592684D01*
X990056Y594944D01*
X992316Y597889D01*
X993737Y601319D01*
X994222Y605000D01*
X993737Y608681D01*
X992316Y612111D01*
X990056Y615056D01*
X987111Y617316D01*
X983681Y618737D01*
X980000Y619222D01*
D02*
G37*
G36*
X874500Y599121D02*
X863500D01*
Y590000D01*
X887582D01*
X886729Y592060D01*
X884485Y594985D01*
X881560Y597229D01*
X878155Y598640D01*
X874500Y599121D01*
D02*
G37*
G36*
X853500D02*
X842500D01*
X838845Y598640D01*
X835440Y597229D01*
X832515Y594985D01*
X830271Y592060D01*
X829418Y590000D01*
X853500D01*
Y599121D01*
D02*
G37*
G36*
X919621Y610000D02*
X910500D01*
Y585918D01*
X912560Y586771D01*
X915485Y589015D01*
X917729Y591940D01*
X919140Y595345D01*
X919621Y599000D01*
Y610000D01*
D02*
G37*
G36*
X900500D02*
X891379D01*
Y599000D01*
X891860Y595345D01*
X893271Y591940D01*
X895515Y589015D01*
X898440Y586771D01*
X900500Y585918D01*
Y610000D01*
D02*
G37*
G36*
X950000Y614222D02*
X946319Y613737D01*
X942889Y612316D01*
X939944Y610056D01*
X937684Y607111D01*
X936263Y603681D01*
X935778Y600000D01*
X936263Y596319D01*
X937684Y592889D01*
X939944Y589944D01*
X942889Y587684D01*
X946319Y586263D01*
X950000Y585778D01*
X953681Y586263D01*
X957111Y587684D01*
X960056Y589944D01*
X962316Y592889D01*
X963737Y596319D01*
X964222Y600000D01*
X963737Y603681D01*
X962316Y607111D01*
X960056Y610056D01*
X957111Y612316D01*
X953681Y613737D01*
X950000Y614222D01*
D02*
G37*
G36*
X935000Y588624D02*
Y580000D01*
X943624D01*
X942666Y582313D01*
X940341Y585341D01*
X937313Y587666D01*
X935000Y588624D01*
D02*
G37*
G36*
X925000D02*
X922687Y587666D01*
X919659Y585341D01*
X917334Y582313D01*
X916376Y580000D01*
X925000D01*
Y588624D01*
D02*
G37*
G36*
X887582Y580000D02*
X863500D01*
Y570879D01*
X874500D01*
X878155Y571360D01*
X881560Y572771D01*
X884485Y575015D01*
X886729Y577940D01*
X887582Y580000D01*
D02*
G37*
G36*
X853500D02*
X829418D01*
X830271Y577940D01*
X832515Y575015D01*
X835440Y572771D01*
X838845Y571360D01*
X842500Y570879D01*
X853500D01*
Y580000D01*
D02*
G37*
G36*
X724861Y584000D02*
X711000D01*
Y570139D01*
X713498Y570897D01*
X716886Y572708D01*
X719855Y575145D01*
X722292Y578114D01*
X724103Y581502D01*
X724861Y584000D01*
D02*
G37*
G36*
X622861D02*
X609000D01*
Y570139D01*
X611498Y570897D01*
X614886Y572708D01*
X617855Y575145D01*
X620292Y578114D01*
X622103Y581502D01*
X622861Y584000D01*
D02*
G37*
G36*
X701000D02*
X687139D01*
X687897Y581502D01*
X689708Y578114D01*
X692145Y575145D01*
X695114Y572708D01*
X698502Y570897D01*
X701000Y570139D01*
Y584000D01*
D02*
G37*
G36*
X599000D02*
X585139D01*
X585897Y581502D01*
X587708Y578114D01*
X590145Y575145D01*
X593114Y572708D01*
X596502Y570897D01*
X599000Y570139D01*
Y584000D01*
D02*
G37*
G36*
X943624Y570000D02*
X935000D01*
Y561376D01*
X937313Y562334D01*
X940341Y564659D01*
X942666Y567687D01*
X943624Y570000D01*
D02*
G37*
G36*
X925000D02*
X916376D01*
X917334Y567687D01*
X919659Y564659D01*
X922687Y562334D01*
X925000Y561376D01*
Y570000D01*
D02*
G37*
G36*
X772000Y572204D02*
X768000D01*
X764841Y571789D01*
X761898Y570569D01*
X759370Y568630D01*
X757431Y566102D01*
X756211Y563159D01*
X755796Y560000D01*
X756211Y556841D01*
X757431Y553898D01*
X759370Y551370D01*
X761898Y549431D01*
X764841Y548211D01*
X766127Y548042D01*
Y546761D01*
X764737Y546578D01*
X761696Y545319D01*
X759085Y543315D01*
X757081Y540704D01*
X756541Y539400D01*
X770000D01*
X783459D01*
X782919Y540704D01*
X780915Y543315D01*
X778304Y545319D01*
X775263Y546578D01*
X773873Y546761D01*
Y548042D01*
X775159Y548211D01*
X778102Y549431D01*
X780630Y551370D01*
X782569Y553898D01*
X783789Y556841D01*
X784204Y560000D01*
X783789Y563159D01*
X782569Y566102D01*
X780630Y568630D01*
X778102Y570569D01*
X775159Y571789D01*
X772000Y572204D01*
D02*
G37*
G36*
X540000Y576682D02*
X535826Y576354D01*
X531755Y575376D01*
X527887Y573774D01*
X524317Y571586D01*
X521133Y568867D01*
X518414Y565683D01*
X516226Y562113D01*
X514624Y558245D01*
X513646Y554174D01*
X513318Y550000D01*
X513646Y545826D01*
X514624Y541755D01*
X516226Y537887D01*
X518414Y534317D01*
X521133Y531133D01*
X524317Y528414D01*
X527887Y526226D01*
X531755Y524624D01*
X535826Y523646D01*
X540000Y523318D01*
X544174Y523646D01*
X548245Y524624D01*
X552113Y526226D01*
X555683Y528414D01*
X558867Y531133D01*
X561586Y534317D01*
X563774Y537887D01*
X565376Y541755D01*
X566354Y545826D01*
X566682Y550000D01*
X566354Y554174D01*
X565376Y558245D01*
X563774Y562113D01*
X561586Y565683D01*
X558867Y568867D01*
X555683Y571586D01*
X552113Y573774D01*
X548245Y575376D01*
X544174Y576354D01*
X540000Y576682D01*
D02*
G37*
G36*
X765000Y529400D02*
X756541D01*
X757081Y528096D01*
X759085Y525485D01*
X761696Y523481D01*
X764737Y522222D01*
X765000Y522187D01*
Y529400D01*
D02*
G37*
G36*
X783459D02*
X775000D01*
Y522187D01*
X775263Y522222D01*
X778304Y523481D01*
X780915Y525485D01*
X782919Y528096D01*
X783459Y529400D01*
D02*
G37*
G36*
X930000Y539222D02*
X926319Y538737D01*
X922889Y537316D01*
X919944Y535056D01*
X917684Y532111D01*
X916263Y528681D01*
X915778Y525000D01*
X916263Y521319D01*
X917684Y517889D01*
X919944Y514944D01*
X922889Y512684D01*
X926319Y511263D01*
X930000Y510778D01*
X933681Y511263D01*
X937111Y512684D01*
X940056Y514944D01*
X942316Y517889D01*
X943737Y521319D01*
X944222Y525000D01*
X943737Y528681D01*
X942316Y532111D01*
X940056Y535056D01*
X937111Y537316D01*
X933681Y538737D01*
X930000Y539222D01*
D02*
G37*
%LPD*%
D27*
X598101Y732899D02*
X643203Y778000D01*
X720900Y794900D02*
Y815900D01*
X704000Y778000D02*
X720900Y794900D01*
X643203Y778000D02*
X704000D01*
X720900Y815900D02*
X740000Y835000D01*
D28*
X655000Y640000D02*
D03*
X680000D02*
D03*
D29*
X706000Y589000D02*
D03*
X604000D02*
D03*
D30*
X540000Y780000D02*
D03*
Y810000D02*
D03*
X890000Y800000D02*
D03*
X920000D02*
D03*
X760000Y920000D02*
D03*
Y890000D02*
D03*
X825000Y781000D02*
D03*
X855000D02*
D03*
X980000Y605000D02*
D03*
Y635000D02*
D03*
X805000Y700000D02*
D03*
X835000D02*
D03*
X950000Y630000D02*
D03*
Y600000D02*
D03*
X745000Y760000D02*
D03*
X775000D02*
D03*
X560000Y610000D02*
D03*
Y640000D02*
D03*
X790000Y665000D02*
D03*
Y635000D02*
D03*
X893000Y731000D02*
D03*
X863000Y753000D02*
D03*
Y709000D02*
D03*
X740000Y679000D02*
D03*
Y723000D02*
D03*
X770000Y701000D02*
D03*
X930000Y575000D02*
D03*
Y525000D02*
D03*
X964000Y787000D02*
D03*
Y837000D02*
D03*
X740000Y841000D02*
D03*
Y791000D02*
D03*
X930000Y745000D02*
D03*
Y775000D02*
D03*
X600000Y695000D02*
D03*
Y665000D02*
D03*
X630000Y695000D02*
D03*
Y665000D02*
D03*
X730000Y920000D02*
D03*
Y890000D02*
D03*
X700000Y805000D02*
D03*
Y835000D02*
D03*
X540000Y840000D02*
D03*
Y870000D02*
D03*
X905000Y676000D02*
D03*
X875000D02*
D03*
X930000Y695000D02*
D03*
Y725000D02*
D03*
X860000Y830000D02*
D03*
X890000D02*
D03*
X835000Y749000D02*
D03*
X805000D02*
D03*
X520000Y610000D02*
D03*
Y640000D02*
D03*
X820000Y820000D02*
D03*
X775000D02*
D03*
X797500Y790000D02*
D03*
D31*
X844000Y980000D02*
D03*
X804000Y866000D02*
D03*
X799000Y941400D02*
D03*
X597000Y940400D02*
D03*
X602000Y865000D02*
D03*
X642000Y979000D02*
D03*
D32*
X869000Y910000D02*
D03*
X896000Y900000D02*
D03*
X694000Y899000D02*
D03*
X667000Y909000D02*
D03*
D33*
X540000Y697200D02*
D03*
Y722800D02*
D03*
X952800Y892800D02*
D03*
Y867200D02*
D03*
X770000Y560000D02*
D03*
Y534400D02*
D03*
X693000Y709800D02*
D03*
Y684200D02*
D03*
D34*
X858500Y585000D02*
D03*
D35*
X905500Y615000D02*
D03*
D36*
X858500Y647000D02*
D03*
D37*
X572900Y732900D02*
D03*
X598300D02*
D03*
X623700D02*
D03*
X649100D02*
D03*
X572900Y809100D02*
D03*
X598300D02*
D03*
X623700D02*
D03*
D38*
X649100D02*
D03*
D39*
X970000Y738800D02*
D03*
Y690000D02*
D03*
M02*
