M48
;Layer_Color=9474304
;FILE_FORMAT=2:5
INCH,LZ
;TYPE=PLATED
T1F00S00C0.03543
T2F00S00C0.03937
T3F00S00C0.03937
T5F00S00C0.08268
T6F00S00C0.09843
;TYPE=NON_PLATED
T7F00S00C0.19685
%
T01
X0225551Y0288543
X0235551
X0245551
X0255551
Y0318543
X0245551
X0235551
X0225551
T02
X0257874Y0251969
X0267717
T03
X0366142Y0206693
Y0226378
X0374016Y0236221
Y0248031
X0385827Y025
Y0238189
X038189Y0271654
X0366142Y0273622
Y0285433
Y0293307
Y0305118
X0379528Y0309842
X038189Y0290866
X0351575Y0287795
X0339764Y0296457
X032874Y0294882
X0316929
X0313976Y0311024
X0324803Y030748
X0336614
X0339764Y0279134
X032874Y027559
X0316929
X0344488Y0266142
X0356299
X0311024Y0261811
Y025
X030315Y0275984
X0291339Y0267323
Y0284646
X0293307Y0299213
X0305118
X0291339Y0311417
X0272835Y0279449
Y026937
X0248031Y0273622
Y0261811
X0236221
Y0273622
X0212598Y0274488
Y0284567
Y0307087
X0220472Y0251969
Y0240158
X0204724
Y0251969
X030315Y0220472
Y0210394
X0305118Y0322835
X0291339Y0331102
X027559Y032874
Y0316929
X0287402Y0350394
Y0362205
X0299213
Y0350394
X0212598Y034252
Y0330709
Y0318898
X0322835Y0322835
X0338583Y0326772
X0350394
Y0314961
X0362205
X0379528Y0329528
X0375118Y0341417
Y0351496
T05
X0237795Y023189
X0277953
T06
X0237008Y0340551
X0235039Y0370236
X0252756Y0385433
X0262598Y0357874
X0273228Y0353937
X0316535Y0340945
X0314567Y037063
X0332283Y0385827
X0342126Y0358268
X0352756Y0354331
T07
X038189Y0216535
X0212598
X0212205Y0378346
X0374016Y0377953
M30
